<svg id="Calque_1" data-name="Calque 1" xmlns="http://www.w3.org/2000/svg" xmlns:xlink="http://www.w3.org/1999/xlink" viewBox="0 0 600 367.22"><defs><style>.cls-1{fill:#283c5b;}.cls-2{clip-path:url(#clip-path);}.cls-3{fill:#0ea587;}.cls-4{fill:#86efac;}.cls-5{fill:#db2777;}</style><clipPath id="clip-path"><path class="cls-1" d="M121.27,151.19c-3.59,52,18,98.4,46.94,126.15l-32.69,47.28a17.09,17.09,0,0,0,4.32,23.71l22.45,15.52A17.09,17.09,0,0,0,186,359.53l34.17-49.42a152.07,152.07,0,0,0,53.57,9.7c48.86,0,89.69-19.73,105.84-39.46C257.6,240.89,162.52,179.9,121.27,151.19Z"/></clipPath></defs><title>transcendence_logo</title><path class="cls-1" d="M121.27,151.19c-3.59,52,18,98.4,46.94,126.15l-32.69,47.28a17.09,17.09,0,0,0,4.32,23.71l22.45,15.52A17.09,17.09,0,0,0,186,359.53l34.17-49.42a152.07,152.07,0,0,0,53.57,9.7c48.86,0,89.69-19.73,105.84-39.46C257.6,240.89,162.52,179.9,121.27,151.19Z"/><g class="cls-2"><path class="cls-3" d="M190.78,168.24h92.11v83.49H236.94V205.59H144.62c0-.49-.05-.85-.05-1.22q0-17.55,0-35.12a2.68,2.68,0,0,1,.7-1.73q45.4-45.48,90.87-90.91a2.45,2.45,0,0,1,1.5-.73q22.2,0,44.41,0c.18,0,.36,0,.84.05Z"/><path class="cls-3" d="M348.92,214.25h-46.1V213q0-21.75,0-43.51a2.64,2.64,0,0,1,.84-2.05Q325.9,145.18,348.11,123a2.48,2.48,0,0,0,.82-2q0-21.87,0-43.73c0-.36,0-.71,0-1l-45.94,45.53V75.91h92.24v1.27q0,21.87,0,43.74a2.56,2.56,0,0,1-.85,2q-22.23,22.14-44.45,44.3a3,3,0,0,0-1,2.33q0,21.58,0,43.18Z"/><path class="cls-3" d="M395.07,214.28H349.46q22.65-22.84,45.61-46Z"/></g><path class="cls-4" d="M236.17,76.61a2.45,2.45,0,0,1,1.5-.73q22.2,0,44.41,0c.18,0,.36,0,.84.05l-59,59.16c18.55,9.91,37.76,19.95,55.23,28.69,7.26,3.63,15.28,7.42,23.69,11.25v-5.56a2.64,2.64,0,0,1,.84-2.05Q325.9,145.18,348.11,123a2.48,2.48,0,0,0,.82-2q0-21.87,0-43.73c0-.36,0-.71,0-1l-45.94,45.53V75.91h92.24v1.27q0,21.87,0,43.74a2.56,2.56,0,0,1-.85,2q-22.23,22.14-44.45,44.3a3,3,0,0,0-1,2.33q0,12.69,0,25.38c4.76,2,9.45,3.91,14,5.76l32.17-32.41V213.6c12.72,5,20.92,8.11,21.12,8.18A152.49,152.49,0,0,0,142.26,90.12c10.13,5.8,29.17,16.48,51.67,28.76Q215.05,97.75,236.17,76.61Z"/><path class="cls-3" d="M193.93,118.88c-22.5-12.28-41.54-23-51.67-28.76h0c-.27.44-.5.91-.76,1.36-.71,1.23-1.41,2.47-2.08,3.72-.38.7-.75,1.41-1.12,2.12-.63,1.22-1.24,2.44-1.84,3.67l-1,2.16c-.61,1.32-1.2,2.66-1.78,4-.27.64-.55,1.26-.82,1.9-.82,2-1.61,4-2.34,6,3.11,1.9,6.27,3.79,9.44,5.69l2.26,1.35L150.5,127l1.29.76q10.41,6.09,21.13,12.14Q183.42,129.39,193.93,118.88Z"/><path class="cls-3" d="M302.81,175c-8.41-3.83-16.43-7.62-23.69-11.25C261.65,155,242.44,145,223.89,135.06L202.7,156.29q5.46,2.94,11,5.83l.91.47q5.4,2.85,10.84,5.65h57.47v28.25h0q9.94,4.63,19.93,9.12Q302.82,190.31,302.81,175Z"/><path class="cls-3" d="M410.23,235.33c.26-.53.53-1.05.78-1.57.89-1.84,1.76-3.69,2.58-5.57.05-.13.1-.27.16-.4q1.14-2.62,2.17-5.31c.09-.23.2-.46.28-.69h0c-.2-.07-8.4-3.18-21.12-8.18v.68H349.45l13.45-13.56c-4.54-1.85-9.23-3.78-14-5.76q0,8.89,0,17.8v1.49H322.45q15.45,6.67,30.86,12.87l.16.07q4.71,1.89,9.4,3.73l2.07.8q3.75,1.47,7.49,2.9l2.82,1.08,6.78,2.54,3.1,1.16,6.8,2.48,2.83,1q4.74,1.69,9.47,3.35c1-1.74,2.06-3.51,3-5.29.29-.52.57-1.05.86-1.58C408.85,238.05,409.55,236.69,410.23,235.33Z"/><path class="cls-5" d="M439.53,166.08C584.9,269.87,619.62,294.72,511.88,275.72a48.41,48.41,0,0,0-86.81-22.49c-6.9-2.23-13.84-4.54-20.84-7-92-32-192.75-80.87-273.75-131.21-72.17-44.85-87.8-66.53-97.9-77.59-49.12-53.79,128.63,2.34,128.63,2.34C6.85-16.34-14.2-4.65,6.85,30.43,18.91,50.53,41,75.29,126,129.43,196.47,174.31,287.6,223,394,261.07q11.54,4.13,23.32,8.06a49,49,0,0,0-1.75,10.56,48.41,48.41,0,0,0,94.64,16.64c14.34,3.57,38.27,5.41,53.32,5.41C692.12,301.74,439.53,166.08,439.53,166.08Z"/></svg>